<?xml version="1.0" standalone="no"?>
<!DOCTYPE svg PUBLIC "-//W3C//DTD SVG 20010904//EN"
 "http://www.w3.org/TR/2001/REC-SVG-20010904/DTD/svg10.dtd">
<svg version="1.0" xmlns="http://www.w3.org/2000/svg"
 width="700.000000pt" height="700.000000pt" viewBox="0 0 700.000000 700.000000"
 preserveAspectRatio="xMidYMid meet">
<metadata>
Created by potrace 1.14, written by Peter Selinger 2001-2017
</metadata>
<g transform="translate(0.000000,700.000000) scale(0.100000,-0.100000)"
fill="#000000" stroke="none">
<path d="M1027 6123 c-1 -1 -22 -4 -46 -8 -62 -9 -161 -47 -228 -86 -72 -43
-178 -149 -221 -222 -40 -66 -80 -180 -89 -251 -4 -38 -8 -3725 -4 -3793 1
-19 6121 -19 6122 0 0 6 1 858 1 1892 1 1463 -2 1893 -12 1940 -31 153 -123
300 -248 397 -67 53 -197 109 -285 124 -34 6 -4985 13 -4990 7z m4960 -455
c55 -20 96 -60 121 -118 14 -31 16 -226 16 -1697 l1 -1663 -40 0 c-55 -1
-5076 -1 -5150 0 l-60 0 0 1663 1 1662 21 46 c23 50 73 94 129 114 28 10 558
12 2473 12 2387 1 2437 0 2488 -19z"/>
<path d="M4 1468 c11 -100 24 -144 69 -233 95 -187 280 -322 482 -352 74 -11
5843 -10 5902 1 288 53 509 292 539 584 l6 62 -3502 0 -3502 0 6 -62z"/>
</g>
</svg>
